<?xml version="1.0" encoding="utf-8"?>
<svg version="1.1" id="Слой_1" xmlns="http://www.w3.org/2000/svg" xmlns:xlink="http://www.w3.org/1999/xlink" x="0px" y="0px"
	 width="160px" height="28.75px" viewBox="0 0 160 28.75" enable-background="new 0 0 160 28.75" xml:space="preserve">
<polygon id="XMLID_11_" fill="#7EC2C7" points="41.23,1.008 56.504,27.6 43.788,27.6 43.788,22.827 48.288,22.827 41.23,10.554 
	34.173,22.827 38.98,22.827 38.98,27.6 25.922,27.6 "/>
<polygon id="XMLID_10_" fill="#364548" points="102.087,12.735 102.087,27.6 96.393,27.6 96.393,1.008 108.7,10.69 108.7,10.758 
	121.043,1.076 121.043,27.6 115.349,27.6 115.349,12.804 108.7,18.054 108.7,17.986 "/>
<polygon id="XMLID_9_" fill="#364548" points="68.948,15.532 58.516,5.099 62.539,1.076 71.846,10.349 81.119,1.076 85.143,5.099 
	74.642,15.601 74.642,27.6 68.948,27.6 "/>
<path id="XMLID_6_" fill="#364548" d="M1,1.076h13.263c2.215,0,4.125,0.784,5.693,2.352c1.568,1.568,2.353,3.478,2.353,5.693
	c0,2.216-0.784,4.125-2.353,5.694c-1.568,1.568-3.478,2.354-5.693,2.354H6.694V27.6H1V1.076z M6.694,6.735v4.739h7.603
	c0.647,0,1.227-0.238,1.67-0.682c0.478-0.477,0.682-1.023,0.682-1.671s-0.238-1.227-0.682-1.67c-0.443-0.477-1.023-0.682-1.67-0.682
	H6.694V6.735z"/>
<path id="XMLID_5_" fill="#364548" d="M152.442,21.054c0.171-0.681,0.239-1.432,0.239-2.147c0-4.365-3.068-8.013-7.16-8.933
	l4.364-8.182c4.228,1.534,7.466,5.147,8.455,9.58c0.136,1.057,0.103,2.114-0.17,3.17C157.522,17.544,155.34,19.828,152.442,21.054
	L152.442,21.054z"/>
<path id="XMLID_4_" fill="#8AC8D8" d="M145.216,18.498c-1.843,3.375-2.898,5.42-4.467,8.319c-0.92-0.341-1.808-0.785-2.625-1.331
	c-0.887-0.613-1.738-1.331-2.522-2.114c-1.023-1.091-1.842-2.319-2.422-3.682l0,0l0,0l-0.034-0.068v-0.034
	c-0.033-0.035-0.033-0.104-0.033-0.171l0,0l0,0c-0.308-1.125-0.613-3.137-0.376-4.669c0.036-0.138,0.068-0.273,0.104-0.41
	c0.681-2.66,2.488-4.808,4.908-6.137c-0.033,0.341-0.068,0.716-0.068,1.057C137.715,13.827,140.92,17.611,145.216,18.498
	L145.216,18.498z"/>
<path id="XMLID_3_" fill="#919ABB" d="M145.249,21.838l-2.897,5.421c0.238,0.034,0.443,0.103,0.682,0.136
	c0.853,0.104,1.671,0.205,2.488,0.205c7.297-0.068,13.194-6.001,13.194-13.296c0-1.023-0.102-1.978-0.307-2.932
	c0.137,1.056,0.103,2.114-0.17,3.169C157.011,19.725,151.318,22.862,145.249,21.838L145.249,21.838z"/>
<path id="XMLID_2_" fill="#72B3B7" d="M148.42,1.348l-3.001,5.456c-5.933-0.683-11.284,2.488-12.579,7.568
	c-0.443,1.67,0,4.125,0.34,5.285c-0.681-1.568-1.091-3.376-1.125-5.183c0.034-2.181,0.545-4.431,1.567-6.443
	C136.486,2.712,142.556-0.015,148.42,1.348L148.42,1.348z"/>
</svg>
